<?xml version="1.0" encoding="utf-8"?>
<!-- Generator: Adobe Illustrator 21.1.0, SVG Export Plug-In . SVG Version: 6.00 Build 0)  -->
<svg version="1.1" id="Layer_1" xmlns="http://www.w3.org/2000/svg" xmlns:xlink="http://www.w3.org/1999/xlink" x="0px" y="0px"
	 viewBox="0 0 1024 1024" style="enable-background:new 0 0 1024 1024;" xml:space="preserve">
<style type="text/css">
	.st0{fill:#FE0001;}
	.st1{fill:#FEFF00;}
	.st2{fill:#00FEFD;}
	.st3{fill:#FF00FC;}
	.st4{fill:#02FE00;}
	.st5{fill:#1502FF;}
	.st6{fill:url(#SVGID_1_);}
	.st7{fill:url(#SVGID_2_);}
</style>
<g>
	<g>
		<path class="st0" d="M969.4,737.4c34.7-70.7,53.8-150.6,52.3-235c-1.7-99.2-31.9-191.4-82.3-268.9c-38,45.9-74.7,87.4-109.8,125.4
			C999.5,446.5,998,616.1,969.4,737.4z"/>
		<path class="st1" d="M533.6,623.5c-71.7-129.2-95.1-233.2-88.7-316.8c-116.2,7.9-255.9,29.9-424.6,70.7l0,0
			C41.8,499.8,141.7,880.2,533.6,623.5z"/>
		<path class="st2" d="M444.9,306.7c179.9-11.9,302.8,10.5,385.2,53c35-38,71.7-79.8,109.8-125.4c-63.9-97.9-160.4-172.8-274-208.7
			C565.6,71.9,456.5,156.5,444.9,306.7z"/>
		<path class="st3" d="M830,359.9C716.1,483.5,617.9,568.6,533.6,624c52.3,94.1,130.5,202.3,241.7,325.3
			c83.3-50.3,151.2-123.7,194.5-211.5C998,616.1,999.5,446.5,830,359.9z"/>
		<path class="st4" d="M533.6,623.5C141.6,880.2,41.7,499.8,20.3,377.3C7.7,423.2,1.6,471.1,2.2,520.8
			c5.1,281.4,237.3,505.9,518.7,500.7c92.8-1.7,179.5-28.3,253.9-72.7C664.3,825.9,586,717.8,533.6,623.5z"/>
		<path class="st5" d="M503,2.2C271.1,6.3,78.4,164.7,20.3,377.5c168.2-40.8,308.4-62.9,424.6-71.1c11.9-150.2,120.6-235,221-281.1
			C614.6,9.7,559.8,1.2,503,2.2z"/>
	</g>
	
		<linearGradient id="SVGID_1_" gradientUnits="userSpaceOnUse" x1="151.6858" y1="-244.4814" x2="872.6285" y2="476.4612" gradientTransform="matrix(1 0 0 1 0 395.89)">
		<stop  offset="0.5" style="stop-color:#000000;stop-opacity:0"/>
		<stop  offset="1" style="stop-color:#000000;stop-opacity:0.4"/>
	</linearGradient>
	<path class="st6" d="M939.9,234C875.9,136.1,779.1,61.7,665.6,25.5c-2.3,1-4.8,2.3-7.4,3.4c2.3-1,5.1-2.3,7.4-3.4
		C614.3,9.5,559.8,1.1,503.2,2.1C271.2,6.2,78.5,164.5,20.4,377.3C89.7,360.7,154,347,214.1,336.3l0,0
		C154,347.2,89.7,360.7,20.4,377.3C7.9,423.2,1.8,471.1,2.3,520.8c5.1,281.4,237.3,505.9,518.7,500.7
		c92.8-1.7,179.5-28.3,253.9-72.7c-59.4-66-109.4-127.5-151.2-184.6l0,0c41.8,57.4,91.5,119,151.2,184.6
		c83.3-50.3,151.2-123.7,194.5-211.5c0,0,0-0.3,0-0.7c34.7-70.4,53.8-150.2,52-234.2C1020.1,403.7,990.3,311.5,939.9,234
		c-10.9,13-21.4,25.2-31.9,37.7 M830,359.9C716.1,483.5,617.9,568.6,533.6,624c20.4,36.7,44.6,75.5,73.1,116.2l0,0
		c-28.6-40.8-53-79.8-73.1-116.2c-71.7-129.2-95.1-233.2-88.7-316.8c-49.7,3.4-103.3,9.2-162.1,18.4l0,0
		c58.4-8.9,112.5-15,162.1-18.4c0.3-6.4,1-12.5,2-18.6c-1,6.1-1.7,12.2-2,18.6C624.8,294.9,747.9,317.3,830,359.9
		c18.1-19.4,36.4-40.1,54.8-61.2l0,0C866.2,319.6,848.1,340,830,359.9z"/>
	
		<linearGradient id="SVGID_2_" gradientUnits="userSpaceOnUse" x1="151.8923" y1="-244.2178" x2="862.4319" y2="466.3218" gradientTransform="matrix(1 0 0 1 0 395.89)">
		<stop  offset="0" style="stop-color:#FFFFFF;stop-opacity:0.35"/>
		<stop  offset="0.7" style="stop-color:#FFFFFF;stop-opacity:0"/>
	</linearGradient>
	<path class="st7" d="M444.9,306.7C445.3,300.3,445.3,300.3,444.9,306.7c179.9-11.9,302.8,10.5,385.2,53
		c35-38,71.7-79.8,109.8-125.4c-63.9-97.9-160.4-172.8-274-208.7c-2.3,1-4.8,2.3-7.4,3.4c2.3-1,5.1-2.3,7.4-3.4
		C614.6,9.5,560.1,1.1,503.4,2.1C271.5,6.5,78.5,164.9,20.4,377.8c74.7-18.4,74.7-18.4,0,0C7.9,423.7,1.8,471.6,2.3,521.3
		c5.4,281.4,237.6,505.5,519.2,500.7c92.8-1.7,179.5-28.3,253.9-72.7C664.6,826.1,586,718.1,533.7,624
		C461.9,494.5,438.2,390.4,444.9,306.7C402.8,309.4,402.8,309.4,444.9,306.7z"/>
</g>
</svg>
